<svg aria-hidden="true" style="position: absolute; width: 0; height: 0; overflow: hidden;" version="1.1" xmlns="http://www.w3.org/2000/svg" xmlns:xlink="http://www.w3.org/1999/xlink">
<defs>
<symbol id="icon-down" viewBox="0 0 32 32">
<path stroke-linejoin="round" stroke-linecap="round" stroke-miterlimit="4" stroke-width="2.56" d="M9.787 13.44l7.040 6.4 7.040-6.4"></path>
</symbol>
<symbol id="icon-up" viewBox="0 0 32 32">
<path d="M18 15L12.5 10L7 15"  stroke-width="2.56"  stroke-miterlimit="4" stroke-linecap="round" stroke-linejoin="round"/>
</symbol>

<symbol id="icon-Search" viewBox="0 0 32 32">
<path stroke-linejoin="miter" stroke-linecap="butt" stroke-miterlimit="4" stroke-width="2.56" d="M24.094 14.72c0 4.948-4.012 8.96-8.96 8.96s-8.96-4.012-8.96-8.96c0-4.948 4.012-8.96 8.96-8.96s8.96 4.012 8.96 8.96z"></path>
<path stroke-linejoin="miter" stroke-linecap="round" stroke-miterlimit="4" stroke-width="2.56" d="M26.654 26.24l-3.84-3.84"></path>
</symbol>

<symbol id="icon-Plas" viewBox="0 0 32 32">
<path stroke-linejoin="miter" stroke-linecap="round" stroke-miterlimit="4" stroke-width="2.6667" d="M16 8v16"></path>
<path stroke-linejoin="miter" stroke-linecap="round" stroke-miterlimit="4" stroke-width="2.6667" d="M24 16h-16"></path>
</symbol>


<symbol id="icon-jingle" viewBox="0 0 32 32">
<path stroke-linejoin="round" stroke-linecap="round" stroke-miterlimit="4" stroke-width="2.6667" d="M24 10.667c0-2.122-0.843-4.157-2.343-5.657s-3.535-2.343-5.657-2.343-4.157 0.843-5.657 2.343c-1.5 1.5-2.343 3.535-2.343 5.657 0 9.333-4 12-4 12h24c0 0-4-2.667-4-12z"></path>
<path stroke-linejoin="round" stroke-linecap="round" stroke-miterlimit="4" stroke-width="2.6667" d="M18.307 28c-0.234 0.404-0.571 0.74-0.976 0.973s-0.864 0.356-1.331 0.356-0.926-0.123-1.331-0.356c-0.405-0.233-0.741-0.569-0.976-0.973"></path>
</symbol>

<symbol id="icon-translation" viewBox="0 0 32 32">
<path stroke-linejoin="round" stroke-linecap="round" stroke-miterlimit="4" stroke-width="2" d="M16 29.333c7.364 0 13.333-5.969 13.333-13.333s-5.969-13.333-13.333-13.333c-7.364 0-13.333 5.969-13.333 13.333s5.969 13.333 13.333 13.333z"></path>
<path stroke-linejoin="round" stroke-linecap="round" stroke-miterlimit="4" stroke-width="2" d="M16 29.333c3.556-3.232 5.333-7.677 5.333-13.333s-1.777-10.101-5.333-13.333c-3.556 3.232-5.333 7.677-5.333 13.333s1.777 10.101 5.333 13.333z"></path>
<path stroke-linejoin="round" stroke-linecap="round" stroke-miterlimit="4" stroke-width="2" d="M3.333 20h25.333M3.333 12h25.333"></path>
</symbol>

<symbol id="icon-user" viewBox="0 0 32 32">
<path stroke-linejoin="round" stroke-linecap="round" stroke-miterlimit="4" stroke-width="2.6667" d="M4 29.333v-1.667c0-1.532 0.302-3.049 0.888-4.465s1.446-2.702 2.529-3.785c1.083-1.083 2.369-1.943 3.785-2.529s2.933-0.888 4.465-0.888 3.049 0.302 4.465 0.888c1.415 0.586 2.702 1.446 3.785 2.529s1.943 2.369 2.529 3.785c0.586 1.415 0.888 2.933 0.888 4.465v1.667"></path>
<path stroke-linejoin="round" stroke-linecap="round" stroke-miterlimit="4" stroke-width="2.6667" d="M15.667 16c1.768 0 3.464-0.702 4.714-1.953s1.953-2.946 1.953-4.714-0.702-3.464-1.953-4.714c-1.25-1.25-2.946-1.953-4.714-1.953s-3.464 0.702-4.714 1.953c-1.25 1.25-1.953 2.946-1.953 4.714s0.702 3.464 1.953 4.714c1.25 1.25 2.946 1.953 4.714 1.953v0z"></path>
</symbol>



<symbol id="icon-Star" viewBox="0 0 32 32">
<path fill="#004d40" style="fill: var(--color3, #004d40); stroke: var(--color3, #004d40)" stroke="#004d40" stroke-linejoin="round" stroke-linecap="round" stroke-miterlimit="4" stroke-width="2.6667" d="M11.209 10.717l3.646-7.343c0.106-0.213 0.269-0.391 0.471-0.516s0.435-0.191 0.672-0.191c0.237 0 0.47 0.066 0.672 0.191s0.365 0.304 0.471 0.516l3.646 7.343 8.152 1.185c0.235 0.033 0.456 0.131 0.638 0.283s0.318 0.353 0.391 0.578 0.082 0.467 0.025 0.698c-0.057 0.23-0.178 0.44-0.349 0.605l-5.898 5.712 1.392 8.070c0.178 1.036-0.916 1.825-1.853 1.336l-7.29-3.812-7.291 3.812c-0.935 0.49-2.029-0.3-1.851-1.338l1.392-8.070-5.898-5.712c-0.17-0.165-0.29-0.374-0.347-0.604s-0.048-0.471 0.026-0.696c0.074-0.225 0.209-0.425 0.39-0.577s0.402-0.25 0.637-0.283l8.152-1.186z"></path>
</symbol>
<symbol id="icon-Stars" viewBox="0 0 197 32">
<path fill="#004d40" style="fill: var(--color1, #004d40); stroke: var(--color1, #004d40)" stroke="#004d40" stroke-linejoin="round" stroke-linecap="round" stroke-miterlimit="4" stroke-width="2.6667" d="M11.209 10.717l3.646-7.343c0.106-0.213 0.269-0.391 0.471-0.516s0.435-0.191 0.672-0.191c0.237 0 0.47 0.066 0.672 0.191s0.365 0.304 0.471 0.516l3.646 7.343 8.152 1.185c0.235 0.033 0.456 0.131 0.638 0.283s0.318 0.353 0.391 0.578 0.082 0.467 0.025 0.698c-0.057 0.23-0.178 0.44-0.349 0.605l-5.898 5.712 1.392 8.070c0.178 1.036-0.916 1.825-1.853 1.336l-7.29-3.812-7.291 3.812c-0.935 0.49-2.029-0.3-1.851-1.338l1.392-8.070-5.898-5.712c-0.17-0.165-0.29-0.375-0.347-0.605s-0.048-0.471 0.026-0.696 0.209-0.425 0.39-0.577c0.182-0.152 0.402-0.25 0.637-0.283l8.152-1.186z"></path>
<path fill="#004d40" style="fill: var(--color1, #004d40); stroke: var(--color1, #004d40)" stroke="#004d40" stroke-linejoin="round" stroke-linecap="round" stroke-miterlimit="4" stroke-width="2.6667" d="M52.542 10.717l3.646-7.343c0.106-0.213 0.269-0.391 0.471-0.516s0.435-0.191 0.672-0.191c0.237 0 0.47 0.066 0.672 0.191s0.365 0.304 0.471 0.516l3.646 7.343 8.152 1.185c0.235 0.033 0.456 0.131 0.638 0.283s0.318 0.353 0.391 0.578 0.082 0.467 0.025 0.698c-0.057 0.23-0.178 0.44-0.349 0.605l-5.898 5.712 1.392 8.070c0.178 1.036-0.916 1.825-1.853 1.336l-7.29-3.812-7.291 3.812c-0.935 0.49-2.030-0.3-1.851-1.338l1.392-8.070-5.897-5.712c-0.17-0.165-0.29-0.375-0.347-0.605s-0.048-0.471 0.026-0.696c0.074-0.225 0.209-0.425 0.39-0.577s0.402-0.25 0.637-0.283l8.151-1.186z"></path>
<path fill="#004d40" style="fill: var(--color1, #004d40); stroke: var(--color1, #004d40)" stroke="#004d40" stroke-linejoin="round" stroke-linecap="round" stroke-miterlimit="4" stroke-width="2.6667" d="M93.875 10.717l3.646-7.343c0.106-0.213 0.269-0.391 0.471-0.516s0.435-0.191 0.672-0.191c0.237 0 0.47 0.066 0.672 0.191s0.365 0.304 0.471 0.516l3.646 7.343 8.152 1.185c0.235 0.033 0.456 0.131 0.638 0.283s0.318 0.353 0.391 0.578 0.082 0.467 0.025 0.698c-0.057 0.23-0.178 0.44-0.349 0.605l-5.898 5.712 1.392 8.070c0.178 1.036-0.916 1.825-1.853 1.336l-7.29-3.812-7.291 3.812c-0.935 0.49-2.030-0.3-1.851-1.338l1.392-8.070-5.897-5.712c-0.17-0.165-0.29-0.375-0.347-0.605s-0.048-0.471 0.026-0.696c0.074-0.225 0.209-0.425 0.39-0.577s0.402-0.25 0.637-0.283l8.151-1.186z"></path>
<path fill="#004d40" style="fill: var(--color1, #004d40); stroke: var(--color1, #004d40)" stroke="#004d40" stroke-linejoin="round" stroke-linecap="round" stroke-miterlimit="4" stroke-width="2.6667" d="M135.208 10.717l3.647-7.343c0.107-0.213 0.269-0.391 0.472-0.516 0.201-0.125 0.435-0.191 0.672-0.191s0.471 0.066 0.672 0.191c0.203 0.125 0.365 0.304 0.472 0.516l3.647 7.343 8.151 1.185c0.236 0.033 0.457 0.131 0.639 0.283 0.183 0.152 0.317 0.353 0.392 0.578 0.073 0.226 0.081 0.467 0.024 0.698-0.056 0.23-0.177 0.44-0.348 0.605l-5.897 5.712 1.392 8.070c0.179 1.036-0.916 1.825-1.853 1.336l-7.289-3.812-7.291 3.812c-0.935 0.49-2.030-0.3-1.851-1.338l1.392-8.070-5.897-5.712c-0.17-0.165-0.29-0.375-0.347-0.605s-0.048-0.471 0.026-0.696c0.074-0.225 0.209-0.425 0.39-0.577s0.402-0.25 0.637-0.283l8.151-1.186z"></path>
<path fill="#004d40" style="fill: var(--color1, #004d40); stroke: var(--color1, #004d40)" stroke="#004d40" stroke-linejoin="round" stroke-linecap="round" stroke-miterlimit="4" stroke-width="2.6667" d="M176.541 10.717l3.647-7.343c0.107-0.213 0.269-0.391 0.472-0.516 0.201-0.125 0.435-0.191 0.672-0.191s0.471 0.066 0.672 0.191c0.203 0.125 0.365 0.304 0.472 0.516l3.647 7.343 8.151 1.185c0.236 0.033 0.457 0.131 0.639 0.283 0.183 0.152 0.317 0.353 0.392 0.578 0.073 0.226 0.081 0.467 0.024 0.698-0.056 0.23-0.177 0.44-0.348 0.605l-5.897 5.712 1.392 8.070c0.179 1.036-0.916 1.825-1.853 1.336l-7.289-3.812-7.291 3.812c-0.935 0.49-2.029-0.3-1.852-1.338l1.392-8.070-5.897-5.712c-0.169-0.165-0.289-0.375-0.347-0.605-0.056-0.23-0.048-0.471 0.027-0.696 0.073-0.225 0.208-0.425 0.389-0.577s0.403-0.25 0.637-0.283l8.151-1.186z"></path>
</symbol>

<symbol id="icon-like" viewBox="0 0 31 32">
<path fill="none" stroke="#004d40" style="stroke: var(--color3, #004d40)" stroke-linejoin="round" stroke-linecap="round" stroke-miterlimit="4" stroke-width="1.92" d="M21.084 26.24h-15.836c-0.204 0-0.399-0.081-0.543-0.225s-0.225-0.339-0.225-0.543v-12.544c0-0.204 0.081-0.399 0.225-0.543s0.339-0.225 0.543-0.225h3.543c0.442-0 0.877-0.115 1.262-0.333s0.706-0.532 0.934-0.911l3.469-5.782c0.262-0.437 0.674-0.763 1.159-0.917s1.010-0.126 1.476 0.080c0.466 0.206 0.84 0.574 1.053 1.037s0.249 0.987 0.103 1.474l-1.308 4.362c-0.034 0.115-0.041 0.236-0.021 0.353s0.069 0.229 0.14 0.325c0.071 0.096 0.164 0.174 0.271 0.228s0.225 0.082 0.344 0.082h5.856c0.394-0 0.782 0.091 1.135 0.265s0.661 0.428 0.9 0.741c0.239 0.313 0.403 0.676 0.478 1.063s0.061 0.785-0.043 1.165l-2.445 8.96c-0.147 0.542-0.469 1.020-0.915 1.361s-0.993 0.526-1.554 0.527z"></path>
<path fill="none" stroke="#004d40" style="stroke: var(--color3, #004d40)" stroke-linejoin="round" stroke-linecap="round" stroke-miterlimit="4" stroke-width="1.92" d="M8.96 26.24v-14.080"></path>
</symbol>


<symbol id="icon-dislike" viewBox="0 0 31 32">
<path fill="none" stroke="#462405" style="stroke: var(--color1, #462405)" stroke-linejoin="round" stroke-linecap="round" stroke-miterlimit="4" stroke-width="1.92" d="M21.354 18.796v-13.036M9.863 5.76h15.009c0.193 0 0.378 0.075 0.515 0.208s0.213 0.314 0.213 0.503v11.614c0 0.189-0.077 0.369-0.213 0.503s-0.322 0.208-0.515 0.208h-3.358c-0.419 0-0.831 0.106-1.195 0.308s-0.67 0.492-0.885 0.843l-3.288 5.353c-0.248 0.404-0.639 0.706-1.098 0.849s-0.957 0.116-1.399-0.074-0.796-0.532-0.998-0.96c-0.202-0.428-0.236-0.914-0.097-1.365l1.24-4.039c0.033-0.106 0.039-0.218 0.020-0.327s-0.065-0.212-0.133-0.301c-0.068-0.089-0.156-0.161-0.257-0.211s-0.213-0.076-0.326-0.076h-5.55c-0.373 0-0.741-0.084-1.076-0.245s-0.626-0.396-0.853-0.686c-0.227-0.29-0.382-0.626-0.453-0.984s-0.058-0.727 0.040-1.078l2.317-8.296c0.14-0.501 0.445-0.944 0.867-1.26s0.941-0.487 1.473-0.487z"></path>
<path fill="none" stroke="#000" style="stroke: var(--color2, #000)" stroke-linejoin="round" stroke-linecap="round" stroke-miterlimit="4" stroke-width="1.92" d="M21.354 18.796v-13.036M9.863 5.76h15.009c0.193 0 0.378 0.075 0.515 0.208s0.213 0.314 0.213 0.503v11.614c0 0.189-0.077 0.369-0.213 0.503s-0.322 0.208-0.515 0.208h-3.358c-0.419 0-0.831 0.106-1.195 0.308s-0.67 0.492-0.885 0.843l-3.288 5.353c-0.248 0.404-0.639 0.706-1.098 0.849s-0.957 0.116-1.399-0.074-0.796-0.532-0.998-0.96c-0.202-0.428-0.236-0.914-0.097-1.365l1.24-4.039c0.033-0.106 0.039-0.218 0.020-0.327s-0.065-0.212-0.133-0.301c-0.068-0.089-0.156-0.161-0.257-0.211s-0.213-0.076-0.326-0.076h-5.55c-0.373 0-0.741-0.084-1.076-0.245s-0.626-0.396-0.853-0.686c-0.227-0.29-0.382-0.626-0.453-0.984s-0.058-0.727 0.040-1.078l2.317-8.296c0.14-0.501 0.445-0.944 0.867-1.26s0.941-0.487 1.473-0.487z"></path>
</symbol>




<symbol id="icon-twitter" viewBox="0 0 32 32">
<path fill="#004d40" style="fill: var(--color1, #004d40)" d="M19.588 8.004v-0.004h1l0.366 0.073c0.244 0.047 0.465 0.11 0.664 0.187s0.391 0.167 0.577 0.269c0.186 0.103 0.355 0.207 0.506 0.314 0.15 0.105 0.285 0.217 0.404 0.335 0.118 0.119 0.302 0.15 0.552 0.092s0.519-0.138 0.808-0.24c0.289-0.103 0.574-0.218 0.856-0.346s0.454-0.21 0.516-0.244c0.060-0.036 0.092-0.055 0.096-0.058l0.004-0.006 0.077-0.038 0.004-0.006 0.011-0.008 0.004-0.006 0.019-0.006 0.019-0.004-0.004 0.029-0.006 0.029-0.019 0.058-0.019 0.038-0.010 0.029c-0.006 0.019-0.013 0.045-0.019 0.077s-0.067 0.16-0.183 0.385c-0.115 0.224-0.26 0.452-0.433 0.683s-0.328 0.405-0.466 0.523c-0.138 0.119-0.23 0.203-0.275 0.25-0.045 0.049-0.099 0.094-0.163 0.135l-0.096 0.063-0.038 0.019-0.004 0.006-0.006 0.004-0.006 0.004-0.004 0.006-0.019 0.010-0.019 0.010-0.004 0.006-0.011 0.008-0.004 0.006-0.004 0.006-0.006 0.004-0.006 0.004-0.004 0.006h0.096l0.539-0.115c0.359-0.077 0.702-0.17 1.029-0.279l0.606-0.202 0.077-0.038 0.038-0.006 0.039-0.004v0.038l-0.010 0.004-0.010 0.006-0.004 0.006-0.006 0.004-0.006 0.004-0.004 0.006-0.004 0.006-0.006 0.004-0.006 0.004-0.008 0.012-0.006 0.004-0.019 0.038-0.006 0.004c-0.003 0.004-0.084 0.113-0.244 0.327-0.16 0.215-0.247 0.324-0.26 0.327-0.013 0.004-0.031 0.023-0.054 0.058-0.022 0.036-0.158 0.179-0.408 0.429s-0.495 0.473-0.735 0.668c-0.241 0.196-0.363 0.437-0.365 0.723-0.004 0.285-0.019 0.607-0.044 0.966s-0.074 0.747-0.144 1.164-0.18 0.888-0.327 1.414c-0.147 0.526-0.327 1.039-0.539 1.539s-0.433 0.949-0.664 1.347c-0.231 0.398-0.443 0.734-0.635 1.010s-0.388 0.535-0.587 0.779c-0.199 0.244-0.45 0.518-0.754 0.823-0.305 0.304-0.472 0.471-0.5 0.5-0.029 0.028-0.155 0.133-0.377 0.315-0.221 0.183-0.458 0.367-0.712 0.55-0.253 0.182-0.485 0.334-0.696 0.456s-0.467 0.261-0.766 0.417c-0.297 0.158-0.619 0.304-0.966 0.439s-0.712 0.26-1.096 0.375c-0.385 0.115-0.757 0.205-1.116 0.269s-0.766 0.119-1.222 0.164l-0.683 0.067v0.010h-1.25v-0.010l-0.164-0.010c-0.109-0.006-0.199-0.013-0.269-0.019s-0.337-0.042-0.798-0.106c-0.462-0.064-0.824-0.128-1.087-0.192s-0.654-0.186-1.173-0.365c-0.519-0.18-0.964-0.361-1.333-0.545-0.368-0.182-0.599-0.297-0.692-0.346-0.092-0.047-0.196-0.106-0.312-0.177l-0.173-0.106-0.004-0.006-0.006-0.004-0.006-0.004-0.004-0.006-0.038-0.019-0.004-0.006-0.006-0.004-0.006-0.004-0.004-0.006-0.004-0.006-0.006-0.004h-0.010v-0.038l0.019 0.004 0.019 0.006 0.087 0.010c0.058 0.006 0.215 0.016 0.471 0.029s0.529 0.013 0.818 0c0.289-0.013 0.584-0.042 0.885-0.087s0.657-0.122 1.068-0.231c0.41-0.109 0.787-0.239 1.131-0.389 0.342-0.151 0.586-0.264 0.731-0.339 0.144-0.073 0.363-0.209 0.658-0.408l0.442-0.298 0.004-0.006 0.006-0.004 0.006-0.004 0.004-0.006 0.004-0.006 0.012-0.008 0.004-0.006 0.019-0.006 0.019-0.004 0.004-0.019 0.006-0.019 0.006-0.004 0.004-0.006-0.154-0.010c-0.103-0.006-0.202-0.013-0.298-0.019s-0.247-0.035-0.452-0.087c-0.205-0.051-0.426-0.128-0.664-0.231s-0.468-0.224-0.693-0.365-0.387-0.259-0.487-0.352c-0.099-0.092-0.227-0.223-0.385-0.392-0.156-0.171-0.292-0.346-0.408-0.525s-0.226-0.387-0.331-0.621l-0.16-0.35-0.010-0.029-0.010-0.029-0.006-0.019-0.004-0.019 0.029 0.004 0.029 0.006 0.212 0.029c0.141 0.019 0.362 0.026 0.664 0.019s0.51-0.019 0.625-0.039c0.115-0.019 0.186-0.032 0.212-0.038l0.038-0.010 0.048-0.010 0.048-0.010 0.004-0.006 0.012-0.008 0.004-0.006-0.192-0.048c-0.026-0.006-0.071-0.019-0.135-0.038s-0.237-0.090-0.519-0.212c-0.282-0.122-0.507-0.241-0.673-0.356s-0.327-0.242-0.477-0.379c-0.15-0.139-0.315-0.317-0.494-0.535s-0.34-0.471-0.481-0.76c-0.141-0.289-0.247-0.564-0.317-0.827-0.070-0.261-0.117-0.529-0.138-0.798l-0.035-0.404 0.019 0.004 0.019 0.006 0.077 0.038 0.298 0.135c0.199 0.090 0.446 0.167 0.741 0.231s0.471 0.099 0.529 0.106l0.087 0.010h0.173l-0.004-0.006-0.006-0.004-0.006-0.004-0.004-0.006-0.004-0.006-0.012-0.008-0.004-0.006-0.038-0.019-0.004-0.006-0.006-0.004-0.006-0.004-0.004-0.006-0.038-0.019-0.004-0.006c-0.004-0.003-0.059-0.044-0.165-0.123-0.105-0.081-0.215-0.185-0.331-0.313s-0.231-0.263-0.346-0.404c-0.116-0.141-0.219-0.293-0.308-0.452s-0.185-0.364-0.285-0.612c-0.099-0.246-0.174-0.494-0.225-0.745s-0.080-0.497-0.087-0.741c-0.006-0.244 0-0.452 0.019-0.625s0.058-0.369 0.115-0.587c0.058-0.218 0.141-0.449 0.25-0.693l0.163-0.366 0.010-0.029 0.010-0.029 0.006-0.004 0.004-0.006 0.004-0.006 0.006-0.004 0.006 0.004 0.004 0.006 0.004 0.006 0.006 0.004 0.006 0.004 0.004 0.006 0.004 0.006 0.006 0.004 0.019 0.038 0.006 0.004 0.004 0.006 0.26 0.289c0.173 0.192 0.378 0.407 0.616 0.644s0.369 0.36 0.394 0.369c0.026 0.010 0.058 0.040 0.096 0.088 0.038 0.047 0.167 0.161 0.385 0.341s0.503 0.388 0.856 0.625c0.353 0.237 0.744 0.471 1.173 0.702s0.891 0.439 1.385 0.625c0.494 0.186 0.84 0.308 1.039 0.366s0.539 0.131 1.020 0.221 0.843 0.148 1.087 0.173c0.244 0.026 0.41 0.040 0.5 0.044l0.135 0.004-0.004-0.029-0.006-0.029-0.038-0.24c-0.026-0.16-0.039-0.385-0.039-0.673s0.023-0.555 0.067-0.798c0.045-0.244 0.112-0.491 0.202-0.741s0.178-0.451 0.264-0.602c0.087-0.15 0.201-0.321 0.342-0.514s0.324-0.391 0.548-0.596c0.225-0.205 0.481-0.388 0.769-0.548s0.555-0.282 0.798-0.366c0.244-0.083 0.449-0.138 0.616-0.164s0.25-0.040 0.25-0.044z"></path>
</symbol>


<symbol id="icon-Facebook" viewBox="0 0 32 32">
<path fill="#004d40" style="fill: var(--color1, #004d40)" d="M17.59 26.667v-9.123h3.145l0.471-3.555h-3.616v-2.27c0-1.029 0.294-1.731 1.81-1.731l1.933-0.001v-3.18c-0.334-0.043-1.482-0.14-2.817-0.14-2.788 0-4.696 1.657-4.696 4.7v2.622h-3.153v3.555h3.153v9.123l3.771 0z"></path>
</symbol>

<symbol id="logo" viewBox="0 0 26 32">
<path fill="#004d40" style="fill: var(--color1, #004d40)" d="M25.612 6.828c0.125 0.017 0.243 0.069 0.342 0.148 0.105 0.088 0.19 0.198 0.247 0.323s0.086 0.261 0.084 0.399v17.446c0 0.365-0.195 0.687-0.494 0.817l-11.314 4.94c-0.726 0.314-1.51 0.432-2.283 0.432-1.632-0.024-3.166-0.478-4.079-1.29-0.29-0.274-0.595-0.661-0.618-1.269h-0.002v-0.019c0-0.002-0.001-0.004-0.002-0.006s-0.002-0.003-0.002-0.006l0.002-0.024v-17.391c0 0-0.003-0.020-0.003-0.032 0.003-0.415 0.17-0.811 0.463-1.103 0.253-0.254 0.553-0.429 0.902-0.57l11.31-4.939c0.116-0.050 0.243-0.067 0.368-0.050s0.243 0.069 0.341 0.148c0.106 0.088 0.19 0.198 0.248 0.323s0.086 0.262 0.084 0.399v1.933l-1.534-0.661-10.287 4.491c-0.064 0.026-0.123 0.052-0.17 0.076 0.172 0.122 0.357 0.225 0.55 0.307 0.636 0.281 1.548 0.488 2.429 0.484 0.632 0 1.248-0.103 1.74-0.319l11.31-4.939c0.116-0.050 0.244-0.068 0.369-0.050zM18.464 3.014c0.19 0.149 0.296 0.397 0.316 0.656l-10.471 4.574c-0.52 0.198-0.994 0.502-1.393 0.893-0.576 0.571-0.904 1.365-0.892 2.191v15.902c-0.434 0.093-0.876 0.141-1.32 0.144-1.633-0.024-3.167-0.477-4.080-1.289-0.29-0.274-0.595-0.661-0.618-1.269h-0.002v-17.446c0 0-0.004-0.019-0.004-0.033 0.003-0.415 0.169-0.811 0.461-1.103 0.254-0.255 0.553-0.429 0.902-0.57l11.31-4.94c0.116-0.050 0.243-0.067 0.368-0.050s0.243 0.068 0.341 0.148c0.106 0.087 0.191 0.198 0.248 0.323s0.086 0.262 0.084 0.4v1.93l-1.534-0.661-10.288 4.491c-0.064 0.026-0.123 0.052-0.17 0.076 0.172 0.122 0.356 0.224 0.55 0.305 0.636 0.282 1.548 0.489 2.429 0.486 0.631 0 1.248-0.104 1.74-0.319l11.31-4.936c0.116-0.050 0.244-0.068 0.369-0.050s0.243 0.069 0.342 0.148zM17.435 21.127l-0.745 4.328 2.831-3.702 2.831 0.432-0.745-3.468 2.499-4.065-3.301 1.559-1.284-2.935-1.284 4.418-3.301 2.253 2.499 1.179z"></path>
</symbol>


<symbol id="Stars-review" viewBox="0 0 197 32">
<path  stroke-linejoin="round" stroke-linecap="round" stroke-miterlimit="4" stroke-width="2.6667" d="M11.209 10.717l3.646-7.343c0.106-0.213 0.269-0.391 0.471-0.516s0.435-0.191 0.672-0.191c0.237 0 0.47 0.066 0.672 0.191s0.365 0.304 0.471 0.516l3.646 7.343 8.152 1.185c0.235 0.033 0.456 0.131 0.638 0.283s0.318 0.353 0.391 0.578 0.082 0.467 0.025 0.698c-0.057 0.23-0.178 0.44-0.349 0.605l-5.898 5.712 1.392 8.070c0.178 1.036-0.916 1.825-1.853 1.336l-7.29-3.812-7.291 3.812c-0.935 0.49-2.029-0.3-1.851-1.338l1.392-8.070-5.898-5.712c-0.17-0.165-0.29-0.375-0.347-0.605s-0.048-0.471 0.026-0.696 0.209-0.425 0.39-0.577c0.182-0.152 0.402-0.25 0.637-0.283l8.152-1.186z"></path>
<path stroke-linejoin="round" stroke-linecap="round" stroke-miterlimit="4" stroke-width="2.6667" d="M52.542 10.717l3.646-7.343c0.106-0.213 0.269-0.391 0.471-0.516s0.435-0.191 0.672-0.191c0.237 0 0.47 0.066 0.672 0.191s0.365 0.304 0.471 0.516l3.646 7.343 8.152 1.185c0.235 0.033 0.456 0.131 0.638 0.283s0.318 0.353 0.391 0.578 0.082 0.467 0.025 0.698c-0.057 0.23-0.178 0.44-0.349 0.605l-5.898 5.712 1.392 8.070c0.178 1.036-0.916 1.825-1.853 1.336l-7.29-3.812-7.291 3.812c-0.935 0.49-2.030-0.3-1.851-1.338l1.392-8.070-5.897-5.712c-0.17-0.165-0.29-0.375-0.347-0.605s-0.048-0.471 0.026-0.696c0.074-0.225 0.209-0.425 0.39-0.577s0.402-0.25 0.637-0.283l8.151-1.186z"></path>
<path stroke-linejoin="round" stroke-linecap="round" stroke-miterlimit="4" stroke-width="2.6667" d="M93.875 10.717l3.646-7.343c0.106-0.213 0.269-0.391 0.471-0.516s0.435-0.191 0.672-0.191c0.237 0 0.47 0.066 0.672 0.191s0.365 0.304 0.471 0.516l3.646 7.343 8.152 1.185c0.235 0.033 0.456 0.131 0.638 0.283s0.318 0.353 0.391 0.578 0.082 0.467 0.025 0.698c-0.057 0.23-0.178 0.44-0.349 0.605l-5.898 5.712 1.392 8.070c0.178 1.036-0.916 1.825-1.853 1.336l-7.29-3.812-7.291 3.812c-0.935 0.49-2.030-0.3-1.851-1.338l1.392-8.070-5.897-5.712c-0.17-0.165-0.29-0.375-0.347-0.605s-0.048-0.471 0.026-0.696c0.074-0.225 0.209-0.425 0.39-0.577s0.402-0.25 0.637-0.283l8.151-1.186z"></path>
<path  stroke-linejoin="round" stroke-linecap="round" stroke-miterlimit="4" stroke-width="2.6667" d="M135.208 10.717l3.647-7.343c0.107-0.213 0.269-0.391 0.472-0.516 0.201-0.125 0.435-0.191 0.672-0.191s0.471 0.066 0.672 0.191c0.203 0.125 0.365 0.304 0.472 0.516l3.647 7.343 8.151 1.185c0.236 0.033 0.457 0.131 0.639 0.283 0.183 0.152 0.317 0.353 0.392 0.578 0.073 0.226 0.081 0.467 0.024 0.698-0.056 0.23-0.177 0.44-0.348 0.605l-5.897 5.712 1.392 8.070c0.179 1.036-0.916 1.825-1.853 1.336l-7.289-3.812-7.291 3.812c-0.935 0.49-2.030-0.3-1.851-1.338l1.392-8.070-5.897-5.712c-0.17-0.165-0.29-0.375-0.347-0.605s-0.048-0.471 0.026-0.696c0.074-0.225 0.209-0.425 0.39-0.577s0.402-0.25 0.637-0.283l8.151-1.186z"></path>
<path  stroke-linejoin="round" stroke-linecap="round" stroke-miterlimit="4" stroke-width="2.6667" d="M176.541 10.717l3.647-7.343c0.107-0.213 0.269-0.391 0.472-0.516 0.201-0.125 0.435-0.191 0.672-0.191s0.471 0.066 0.672 0.191c0.203 0.125 0.365 0.304 0.472 0.516l3.647 7.343 8.151 1.185c0.236 0.033 0.457 0.131 0.639 0.283 0.183 0.152 0.317 0.353 0.392 0.578 0.073 0.226 0.081 0.467 0.024 0.698-0.056 0.23-0.177 0.44-0.348 0.605l-5.897 5.712 1.392 8.070c0.179 1.036-0.916 1.825-1.853 1.336l-7.289-3.812-7.291 3.812c-0.935 0.49-2.029-0.3-1.852-1.338l1.392-8.070-5.897-5.712c-0.169-0.165-0.289-0.375-0.347-0.605-0.056-0.23-0.048-0.471 0.027-0.696 0.073-0.225 0.208-0.425 0.389-0.577s0.403-0.25 0.637-0.283l8.151-1.186z"></path>
</symbol>

<symbol id="star" viewBox="0 0 32 32">
<path stroke="#004d40" stroke-linejoin="round" stroke-linecap="round" stroke-miterlimit="4" stroke-width="2.6667" d="M11.209 10.717l3.646-7.343c0.106-0.213 0.269-0.391 0.471-0.516s0.435-0.191 0.672-0.191c0.237 0 0.47 0.066 0.672 0.191s0.365 0.304 0.471 0.516l3.646 7.343 8.152 1.185c0.235 0.033 0.456 0.131 0.638 0.283s0.318 0.353 0.391 0.578 0.082 0.467 0.025 0.698c-0.057 0.23-0.178 0.44-0.349 0.605l-5.898 5.712 1.392 8.070c0.178 1.036-0.916 1.825-1.853 1.336l-7.29-3.812-7.291 3.812c-0.935 0.49-2.029-0.3-1.851-1.338l1.392-8.070-5.898-5.712c-0.17-0.165-0.29-0.374-0.347-0.604s-0.048-0.471 0.026-0.696c0.074-0.225 0.209-0.425 0.39-0.577s0.402-0.25 0.637-0.283l8.152-1.186z"></path>
</symbol>

<symbol id="icon-message" viewBox="0 0 36 32">
<path d="M0.014 29.308c0.002 1.275 1.306 2.134 2.478 1.631l31.030-13.305c1.436-0.616 1.436-2.652 0-3.268l-31.030-13.305c-1.172-0.503-2.477 0.356-2.478 1.631l-0.012 8.193c-0.001 0.892 0.659 1.647 1.543 1.765l11.905 1.587c2.057 0.274 2.057 3.25 0 3.524l-11.905 1.587c-0.884 0.118-1.544 0.873-1.543 1.765l0.012 8.193z"></path>
</symbol>


<symbol id="icon-filter" viewBox="0 0 32 32">
<path stroke-linejoin="miter" stroke-linecap="round" stroke-miterlimit="4" stroke-width="2.6667" d="M14.667 10.667h12"></path>
<path stroke-linejoin="miter" stroke-linecap="round" stroke-miterlimit="4" stroke-width="2.6667" d="M5.333 21.333h13.333"></path>
<path stroke-linejoin="miter" stroke-linecap="round" stroke-miterlimit="4" stroke-width="2.6667" d="M9.333 14.667c-2.209 0-4-1.791-4-4s1.791-4 4-4c2.209 0 4 1.791 4 4s-1.791 4-4 4z"></path>
<path stroke-linejoin="miter" stroke-linecap="round" stroke-miterlimit="4" stroke-width="2.6667" d="M22.667 25.333c-2.209 0-4-1.791-4-4s1.791-4 4-4c2.209 0 4 1.791 4 4s-1.791 4-4 4z"></path>
</symbol>

</defs>

</svg>